<svg xmlns="http://www.w3.org/2000/svg" xmlns:xlink="http://www.w3.org/1999/xlink" xmlns:lucid="lucid" width="1403.17" height="991.03"><g transform="translate(0 0)" lucid:page-tab-id="0_0"><path d="M0 0h1403.17v991.03H0z" fill="#fff"/><path d="M580 465a5 5 0 0 1 5-5h290a5 5 0 0 1 5 5v222a5 5 0 0 1-5 5H585a5 5 0 0 1-5-5z" fill="#fff"/><path d="M580 500v-35a5 5 0 0 1 5-5h290a5 5 0 0 1 5 5v35" fill="#ccc"/><path d="M580 465a5 5 0 0 1 5-5h290a5 5 0 0 1 5 5v222a5 5 0 0 1-5 5H585a5 5 0 0 1-5-5zM580 500h300M730 500v192" stroke="#333" fill="none"/><use xlink:href="#a" transform="matrix(1,0,0,1,590,460) translate(0 23.6)"/><use xlink:href="#b" transform="matrix(1,0,0,1,585,502.5) translate(0 17.1)"/><use xlink:href="#c" transform="matrix(1,0,0,1,735,502.5) translate(0 17.1)"/><use xlink:href="#d" transform="matrix(1,0,0,1,735,502.5) translate(25 17.1)"/><use xlink:href="#e" transform="matrix(1,0,0,1,585,534.5) translate(0 17.1)"/><use xlink:href="#f" transform="matrix(1,0,0,1,735,534.5) translate(0 17.1)"/><use xlink:href="#g" transform="matrix(1,0,0,1,735,534.5) translate(72.25 17.1)"/><use xlink:href="#h" transform="matrix(1,0,0,1,585,566.5) translate(0 17.1)"/><use xlink:href="#i" transform="matrix(1,0,0,1,735,566.5) translate(0 17.1)"/><use xlink:href="#j" transform="matrix(1,0,0,1,735,566.5) translate(67.25 17.1)"/><use xlink:href="#k" transform="matrix(1,0,0,1,585,598.5) translate(0 17.1)"/><use xlink:href="#i" transform="matrix(1,0,0,1,735,598.5) translate(0 17.1)"/><use xlink:href="#j" transform="matrix(1,0,0,1,735,598.5) translate(67.25 17.1)"/><use xlink:href="#l" transform="matrix(1,0,0,1,585,630.5) translate(0 17.1)"/><use xlink:href="#m" transform="matrix(1,0,0,1,735,630.5) translate(0 17.1)"/><use xlink:href="#n" transform="matrix(1,0,0,1,585,662.5) translate(0 17.1)"/><use xlink:href="#i" transform="matrix(1,0,0,1,735,662.5) translate(0 17.1)"/><use xlink:href="#j" transform="matrix(1,0,0,1,735,662.5) translate(67.25 17.1)"/><path d="M500 105a5 5 0 0 1 5-5h290a5 5 0 0 1 5 5v254a5 5 0 0 1-5 5H505a5 5 0 0 1-5-5z" fill="#fff"/><path d="M500 140v-35a5 5 0 0 1 5-5h290a5 5 0 0 1 5 5v35" fill="#ccc"/><path d="M500 105a5 5 0 0 1 5-5h290a5 5 0 0 1 5 5v254a5 5 0 0 1-5 5H505a5 5 0 0 1-5-5zM500 140h300M650 140v224" stroke="#333" fill="none"/><use xlink:href="#o" transform="matrix(1,0,0,1,510,100) translate(0 23.6)"/><use xlink:href="#b" transform="matrix(1,0,0,1,505,142.5) translate(0 17.1)"/><use xlink:href="#c" transform="matrix(1,0,0,1,655,142.5) translate(0 17.1)"/><use xlink:href="#d" transform="matrix(1,0,0,1,655,142.5) translate(25 17.1)"/><use xlink:href="#p" transform="matrix(1,0,0,1,505,174.5) translate(0 17.1)"/><use xlink:href="#f" transform="matrix(1,0,0,1,655,174.5) translate(0 17.1)"/><use xlink:href="#q" transform="matrix(1,0,0,1,655,174.5) translate(72.25 17.1)"/><use xlink:href="#r" transform="matrix(1,0,0,1,505,206.5) translate(0 17.1)"/><use xlink:href="#i" transform="matrix(1,0,0,1,655,206.5) translate(0 17.1)"/><use xlink:href="#s" transform="matrix(1,0,0,1,655,206.5) translate(67.25 17.1)"/><use xlink:href="#t" transform="matrix(1,0,0,1,505,238.5) translate(0 17.1)"/><use xlink:href="#m" transform="matrix(1,0,0,1,655,238.5) translate(0 17.1)"/><use xlink:href="#u" transform="matrix(1,0,0,1,505,270.5) translate(0 17.1)"/><use xlink:href="#m" transform="matrix(1,0,0,1,655,270.5) translate(0 17.1)"/><use xlink:href="#v" transform="matrix(1,0,0,1,505,302.5) translate(0 17.1)"/><use xlink:href="#c" transform="matrix(1,0,0,1,655,302.5) translate(0 17.1)"/><use xlink:href="#w" transform="matrix(1,0,0,1,655,302.5) translate(25 17.1)"/><use xlink:href="#x" transform="matrix(1,0,0,1,505,334.5) translate(0 17.1)"/><use xlink:href="#y" transform="matrix(1,0,0,1,655,334.5) translate(0 17.1)"/><path d="M120 325a5 5 0 0 1 5-5h290a5 5 0 0 1 5 5v190a5 5 0 0 1-5 5H125a5 5 0 0 1-5-5z" fill="#fff"/><path d="M120 360v-35a5 5 0 0 1 5-5h290a5 5 0 0 1 5 5v35" fill="#ccc"/><path d="M120 325a5 5 0 0 1 5-5h290a5 5 0 0 1 5 5v190a5 5 0 0 1-5 5H125a5 5 0 0 1-5-5zM120 360h300M270 360v160" stroke="#333" fill="none"/><use xlink:href="#z" transform="matrix(1,0,0,1,130,320) translate(0 23.6)"/><use xlink:href="#b" transform="matrix(1,0,0,1,125,362.5) translate(0 17.1)"/><use xlink:href="#c" transform="matrix(1,0,0,1,275,362.5) translate(0 17.1)"/><use xlink:href="#d" transform="matrix(1,0,0,1,275,362.5) translate(25 17.1)"/><use xlink:href="#A" transform="matrix(1,0,0,1,125,394.5) translate(0 17.1)"/><use xlink:href="#c" transform="matrix(1,0,0,1,275,394.5) translate(0 17.1)"/><use xlink:href="#w" transform="matrix(1,0,0,1,275,394.5) translate(25 17.1)"/><use xlink:href="#B" transform="matrix(1,0,0,1,125,426.5) translate(0 17.1)"/><use xlink:href="#c" transform="matrix(1,0,0,1,275,426.5) translate(0 17.1)"/><use xlink:href="#w" transform="matrix(1,0,0,1,275,426.5) translate(25 17.1)"/><use xlink:href="#t" transform="matrix(1,0,0,1,125,458.5) translate(0 17.1)"/><use xlink:href="#m" transform="matrix(1,0,0,1,275,458.5) translate(0 17.1)"/><use xlink:href="#u" transform="matrix(1,0,0,1,125,490.5) translate(0 17.1)"/><use xlink:href="#m" transform="matrix(1,0,0,1,275,490.5) translate(0 17.1)"/><path d="M500 765a5 5 0 0 1 5-5h290a5 5 0 0 1 5 5v126a5 5 0 0 1-5 5H505a5 5 0 0 1-5-5z" fill="#fff"/><path d="M500 800v-35a5 5 0 0 1 5-5h290a5 5 0 0 1 5 5v35" fill="#ccc"/><path d="M500 765a5 5 0 0 1 5-5h290a5 5 0 0 1 5 5v126a5 5 0 0 1-5 5H505a5 5 0 0 1-5-5zM500 800h300M650 800v96" stroke="#333" fill="none"/><use xlink:href="#C" transform="matrix(1,0,0,1,510,760) translate(0 23.6)"/><use xlink:href="#D" transform="matrix(1,0,0,1,505,802.5) translate(0 17.1)"/><use xlink:href="#c" transform="matrix(1,0,0,1,655,802.5) translate(0 17.1)"/><use xlink:href="#w" transform="matrix(1,0,0,1,655,802.5) translate(25 17.1)"/><use xlink:href="#E" transform="matrix(1,0,0,1,505,834.5) translate(0 17.1)"/><use xlink:href="#c" transform="matrix(1,0,0,1,655,834.5) translate(0 17.1)"/><use xlink:href="#w" transform="matrix(1,0,0,1,655,834.5) translate(25 17.1)"/><use xlink:href="#t" transform="matrix(1,0,0,1,505,866.5) translate(0 17.1)"/><use xlink:href="#m" transform="matrix(1,0,0,1,655,866.5) translate(0 17.1)"/><path d="M1000 325a5 5 0 0 1 5-5h290a5 5 0 0 1 5 5v158a5 5 0 0 1-5 5h-290a5 5 0 0 1-5-5z" fill="#fff"/><path d="M1000 360v-35a5 5 0 0 1 5-5h290a5 5 0 0 1 5 5v35" fill="#ccc"/><path d="M1000 325a5 5 0 0 1 5-5h290a5 5 0 0 1 5 5v158a5 5 0 0 1-5 5h-290a5 5 0 0 1-5-5zM1000 360h300M1150 360v128" stroke="#333" fill="none"/><use xlink:href="#F" transform="matrix(1,0,0,1,1010,320) translate(0 23.6)"/><use xlink:href="#b" transform="matrix(1,0,0,1,1005,362.5) translate(0 17.1)"/><use xlink:href="#c" transform="matrix(1,0,0,1,1155,362.5) translate(0 17.1)"/><use xlink:href="#w" transform="matrix(1,0,0,1,1155,362.5) translate(25 17.1)"/><use xlink:href="#G" transform="matrix(1,0,0,1,1005,394.5) translate(0 17.1)"/><use xlink:href="#c" transform="matrix(1,0,0,1,1155,394.5) translate(0 17.1)"/><use xlink:href="#w" transform="matrix(1,0,0,1,1155,394.5) translate(25 17.1)"/><use xlink:href="#H" transform="matrix(1,0,0,1,1005,426.5) translate(0 17.1)"/><use xlink:href="#c" transform="matrix(1,0,0,1,1155,426.5) translate(0 17.1)"/><use xlink:href="#w" transform="matrix(1,0,0,1,1155,426.5) translate(25 17.1)"/><use xlink:href="#t" transform="matrix(1,0,0,1,1005,458.5) translate(0 17.1)"/><use xlink:href="#m" transform="matrix(1,0,0,1,1155,458.5) translate(0 17.1)"/><path d="M100 585a5 5 0 0 1 5-5h290a5 5 0 0 1 5 5v286a5 5 0 0 1-5 5H105a5 5 0 0 1-5-5z" fill="#fff"/><path d="M100 620v-35a5 5 0 0 1 5-5h290a5 5 0 0 1 5 5v35" fill="#ccc"/><path d="M100 585a5 5 0 0 1 5-5h290a5 5 0 0 1 5 5v286a5 5 0 0 1-5 5H105a5 5 0 0 1-5-5zM100 620h300M250 620v256" stroke="#333" fill="none"/><use xlink:href="#I" transform="matrix(1,0,0,1,110,580) translate(0 23.6)"/><use xlink:href="#J" transform="matrix(1,0,0,1,110,580) translate(51.95 23.6)"/><use xlink:href="#b" transform="matrix(1,0,0,1,105,622.5) translate(0 17.1)"/><use xlink:href="#c" transform="matrix(1,0,0,1,255,622.5) translate(0 17.1)"/><use xlink:href="#d" transform="matrix(1,0,0,1,255,622.5) translate(25 17.1)"/><use xlink:href="#K" transform="matrix(1,0,0,1,105,654.5) translate(0 17.1)"/><use xlink:href="#i" transform="matrix(1,0,0,1,255,654.5) translate(0 17.1)"/><use xlink:href="#L" transform="matrix(1,0,0,1,255,654.5) translate(67.25 17.1)"/><use xlink:href="#M" transform="matrix(1,0,0,1,105,686.5) translate(0 17.1)"/><use xlink:href="#i" transform="matrix(1,0,0,1,255,686.5) translate(0 17.1)"/><use xlink:href="#j" transform="matrix(1,0,0,1,255,686.5) translate(67.25 17.1)"/><use xlink:href="#N" transform="matrix(1,0,0,1,105,718.5) translate(0 17.1)"/><use xlink:href="#i" transform="matrix(1,0,0,1,255,718.5) translate(0 17.1)"/><use xlink:href="#j" transform="matrix(1,0,0,1,255,718.5) translate(67.25 17.1)"/><use xlink:href="#O" transform="matrix(1,0,0,1,105,750.5) translate(0 17.1)"/><use xlink:href="#P" transform="matrix(1,0,0,1,255,750.5) translate(0 17.1)"/><use xlink:href="#Q" transform="matrix(1,0,0,1,105,782.5) translate(0 17.1)"/><use xlink:href="#c" transform="matrix(1,0,0,1,255,782.5) translate(0 17.1)"/><use xlink:href="#w" transform="matrix(1,0,0,1,255,782.5) translate(25 17.1)"/><use xlink:href="#t" transform="matrix(1,0,0,1,105,814.5) translate(0 17.1)"/><use xlink:href="#m" transform="matrix(1,0,0,1,255,814.5) translate(0 17.1)"/><use xlink:href="#u" transform="matrix(1,0,0,1,105,846.5) translate(0 17.1)"/><use xlink:href="#m" transform="matrix(1,0,0,1,255,846.5) translate(0 17.1)"/><path d="M980 637a5 5 0 0 1 5-5h290a5 5 0 0 1 5 5v254a5 5 0 0 1-5 5H985a5 5 0 0 1-5-5z" fill="#fff"/><path d="M980 672v-35a5 5 0 0 1 5-5h290a5 5 0 0 1 5 5v35" fill="#ccc"/><path d="M980 637a5 5 0 0 1 5-5h290a5 5 0 0 1 5 5v254a5 5 0 0 1-5 5H985a5 5 0 0 1-5-5zM980 672h300M1130 672v224" stroke="#333" fill="none"/><use xlink:href="#R" transform="matrix(1,0,0,1,990,632) translate(0 23.6)"/><use xlink:href="#b" transform="matrix(1,0,0,1,985,674.5) translate(0 17.1)"/><use xlink:href="#c" transform="matrix(1,0,0,1,1135,674.5) translate(0 17.1)"/><use xlink:href="#d" transform="matrix(1,0,0,1,1135,674.5) translate(25 17.1)"/><use xlink:href="#S" transform="matrix(1,0,0,1,985,706.5) translate(0 17.1)"/><use xlink:href="#T" transform="matrix(1,0,0,1,1135,706.5) translate(0 17.1)"/><use xlink:href="#w" transform="matrix(1,0,0,1,1135,706.5) translate(23.95 17.1)"/><use xlink:href="#U" transform="matrix(1,0,0,1,985,738.5) translate(0 17.1)"/><use xlink:href="#c" transform="matrix(1,0,0,1,1135,738.5) translate(0 17.1)"/><use xlink:href="#w" transform="matrix(1,0,0,1,1135,738.5) translate(25 17.1)"/><use xlink:href="#x" transform="matrix(1,0,0,1,985,770.5) translate(0 17.1)"/><use xlink:href="#i" transform="matrix(1,0,0,1,1135,770.5) translate(0 17.1)"/><use xlink:href="#V" transform="matrix(1,0,0,1,1135,770.5) translate(67.25 17.1)"/><use xlink:href="#W" transform="matrix(1,0,0,1,985,802.5) translate(0 17.1)"/><g><use xlink:href="#m" transform="matrix(1,0,0,1,1135,802.5) translate(0 17.1)"/></g><g><use xlink:href="#t" transform="matrix(1,0,0,1,985,834.5) translate(0 17.1)"/></g><g><use xlink:href="#m" transform="matrix(1,0,0,1,1135,834.5) translate(0 17.1)"/></g><g><use xlink:href="#u" transform="matrix(1,0,0,1,985,866.5) translate(0 17.1)"/></g><g><use xlink:href="#m" transform="matrix(1,0,0,1,1135,866.5) translate(0 17.1)"/></g><path d="M900.5 580H1024a12 12 0 0 1 12 12v20.1M880.5 580h20m0 10v-20M1036 631.28v-20m10 20l-10-20m-10 20l10-20M746.67 439.5V422a10 10 0 0 0-10-10 10 10 0 0 1-10-10v-18.1M746.67 459.5v-20m10 0h-20M726.67 364.72v20m-10-20l10 20m10-20l-10 20M849.33 439.5V420a12 12 0 0 1 12-12H980.1M849.33 459.5v-20m10 0h-20M999.28 408h-20m20-10l-20 10m20 10l-20-10M820.5 219.96h218.17a12 12 0 0 1 12 12v68.13M800.5 219.96h20m0 10v-20M1050.67 319.28v-20m10 20l-10-20m-10 20l10-20M560.1 515.8H512a12 12 0 0 1-12-12v-51.73a12 12 0 0 0-12-12h-48.1M579.28 515.8h-20m20-10l-20 10m20 10l-20-10M420.72 440.07h20m-20 10l20-10m-20-10l20 10M420.5 667.8h57.7A11.8 11.8 0 0 0 490 656a11.8 11.8 0 0 1 11.8-11.77h57.7M400.5 667.8h20m0 10v-20M579.5 644.23h-20m0-10v20M849.33 711.9V820a12 12 0 0 1-12 12H819.9M849.33 692.72v20m-10-20l10 20m10-20l-10 20M800.72 832h20m-20 10l20-10m-20-10l20 10" stroke="#333" fill="none"/><defs><path fill="#333" d="M62-99C39-31 123 0 170-40s38-139 58-208h34C234-144 253 4 115 4 49 4 18-43 31-112l26-136h34" id="X"/><path fill="#333" d="M55-144c13 50 104 24 104 88C159 21 15 23 1-39l26-10c6 40 102 42 102-4-13-50-104-23-104-87 0-71 143-71 148-8l-29 4c-5-35-85-37-89 0" id="Y"/><path fill="#333" d="M67 3c-93-2-31-127-26-193h32L48-50c-3 39 53 32 70 12 30-34 30-101 43-152h32L157 0h-30c1-10 6-24 4-33-14 20-29 37-64 36" id="Z"/><path fill="#333" d="M165-48c-4 18 1 34 23 27l-3 20c-29 8-62 0-52-35h-2C116-14 99 4 63 4 30 4 8-16 8-49c0-68 71-67 138-67 10-26 0-56-31-54-26 1-42 9-47 31l-32-5c8-67 160-71 144 15-5 28-9 54-15 81zM42-50c3 52 80 24 89-6 7-12 7-24 11-38-47 1-103-4-100 44" id="aa"/><path fill="#333" d="M66-151c12-25 30-51 66-40l-6 26C45-176 58-65 38 0H6l36-190h30" id="ab"/><path fill="#333" d="M50-231l6-30h32l-6 30H50zM6 0l37-190h31L37 0H6" id="ac"/><path fill="#333" d="M30-147c31-64 166-65 159 27C183-49 158 1 86 4 9 8 1-88 30-147zM88-20c53 0 68-48 68-100 0-31-11-51-44-50-52 1-68 46-68 97 0 32 13 53 44 53" id="ad"/><g id="a"><use transform="matrix(0.05,0,0,0.05,0,0)" xlink:href="#X"/><use transform="matrix(0.05,0,0,0.05,12.950000000000001,0)" xlink:href="#Y"/><use transform="matrix(0.05,0,0,0.05,21.950000000000003,0)" xlink:href="#Z"/><use transform="matrix(0.05,0,0,0.05,31.950000000000003,0)" xlink:href="#aa"/><use transform="matrix(0.05,0,0,0.05,41.95,0)" xlink:href="#ab"/><use transform="matrix(0.05,0,0,0.05,47.900000000000006,0)" xlink:href="#ac"/><use transform="matrix(0.05,0,0,0.05,51.85,0)" xlink:href="#ad"/><use transform="matrix(0.05,0,0,0.05,61.85,0)" xlink:href="#Y"/></g><path fill="#333" d="M14 0l48-248h34L48 0H14" id="ae"/><path fill="#333" d="M248-139C247-14 144 9 11 0l48-248c105-6 190 8 189 109zm-34 0c1-70-52-87-126-82L50-27c98 7 163-21 164-112" id="af"/><g id="b"><use transform="matrix(0.05,0,0,0.05,0,0)" xlink:href="#ae"/><use transform="matrix(0.05,0,0,0.05,5,0)" xlink:href="#af"/></g><path fill="#333" d="M67-158c22-48 132-52 116 29L158 0h-32l25-140c3-38-53-32-70-12C52-117 51-52 38 0H6l36-190h30" id="ag"/><path fill="#333" d="M51-54c-9 22 5 41 31 30L79-1C43 14 10-4 19-52l22-115H19l5-23h22l19-43h21l-9 43h35l-4 23H73" id="ah"/><g id="c"><use transform="matrix(0.05,0,0,0.05,0,0)" xlink:href="#ae"/><use transform="matrix(0.05,0,0,0.05,5,0)" xlink:href="#ag"/><use transform="matrix(0.05,0,0,0.05,15,0)" xlink:href="#ah"/></g><path fill="#333" d="M238-179c0 84-86 86-175 82L45 0H11l48-248c82 0 179-12 179 69zm-34 1c0-53-64-42-116-43l-19 98c63 0 135 9 135-55" id="ai"/><path fill="#333" d="M180 0L97-118 63-96 45 0H11l48-248h34L69-126c44-43 94-81 141-122h43L121-137 219 0h-39" id="aj"/><g id="d"><use transform="matrix(0.05,0,0,0.05,0,0)" xlink:href="#ai"/><use transform="matrix(0.05,0,0,0.05,12,0)" xlink:href="#aj"/></g><path fill="#333" d="M173 0L80-213 41 0H11l48-248h37l94 214 40-214h30L212 0h-39" id="ak"/><path fill="#333" d="M248-111c6-24 9-61-24-58-72 9-57 108-77 169h-31l26-142c3-37-50-30-64-10C52-115 50-51 37 0H6l36-190h30c-1 10-6 24-4 32 13-43 101-52 105 5 13-22 29-41 61-41 90 0 28 129 23 194h-31" id="al"/><path fill="#333" d="M68-162c25-46 127-43 121 31C183-60 169 1 98 4 69 5 53-11 43-31L36 0H5l52-261h31zm88 36c2-27-9-43-34-43-55 0-70 51-70 103 0 29 15 45 43 46 52 0 58-58 61-106" id="am"/><path fill="#333" d="M111-194c62-3 86 47 72 106H45c-7 38 6 69 45 68 27-1 43-14 53-32l24 11C152-15 129 4 87 4 38 3 12-23 12-71c0-70 32-119 99-123zm44 81c14-66-71-72-95-28-4 8-8 17-11 28h106" id="an"/><g id="e"><use transform="matrix(0.05,0,0,0.05,0,0)" xlink:href="#ak"/><use transform="matrix(0.05,0,0,0.05,12.950000000000001,0)" xlink:href="#ad"/><use transform="matrix(0.05,0,0,0.05,22.950000000000003,0)" xlink:href="#al"/><use transform="matrix(0.05,0,0,0.05,37.900000000000006,0)" xlink:href="#am"/><use transform="matrix(0.05,0,0,0.05,47.900000000000006,0)" xlink:href="#ab"/><use transform="matrix(0.05,0,0,0.05,53.85,0)" xlink:href="#an"/></g><path fill="#333" d="M119 0H84L31-248h34l41 218 126-218h36" id="ao"/><path fill="#333" d="M44-68c0 29 11 47 38 47 30 0 42-19 51-41l28 9C148-21 126 4 82 4 31 4 10-29 12-85c3-77 74-140 146-93 12 8 15 23 18 40l-31 5c-1-22-13-36-36-36-52 0-65 49-65 101" id="ap"/><path fill="#333" d="M67-158c15-20 31-36 64-36 94 0 33 127 27 194h-32l25-140c3-38-53-32-70-12C52-117 51-51 37 0H6l51-261h31" id="aq"/><g id="f"><use transform="matrix(0.05,0,0,0.05,0,0)" xlink:href="#ao"/><use transform="matrix(0.05,0,0,0.05,11.35,0)" xlink:href="#aa"/><use transform="matrix(0.05,0,0,0.05,21.35,0)" xlink:href="#ab"/><use transform="matrix(0.05,0,0,0.05,27.3,0)" xlink:href="#ap"/><use transform="matrix(0.05,0,0,0.05,36.3,0)" xlink:href="#aq"/><use transform="matrix(0.05,0,0,0.05,46.3,0)" xlink:href="#aa"/><use transform="matrix(0.05,0,0,0.05,56.29999999999999,0)" xlink:href="#ab"/></g><path fill="#333" d="M17-49c1-102 45-165 103-212h30C92-210 49-145 49-46 49 4 63 43 85 75H54C30 43 18 2 17-49" id="ar"/><path fill="#333" d="M9 0l6-27h63l36-188-63 39 6-31 66-41h29L110-27h60l-5 27H9" id="as"/><path fill="#333" d="M16-82c0-90 25-169 113-169 48 0 68 33 68 82C197-79 170 4 84 4 37 4 16-31 16-82zm30 5c0 32 11 55 40 55 69 0 76-79 80-149 2-32-10-55-39-55-69 0-81 81-81 149" id="at"/><path fill="#333" d="M98-137C97-35 54 29-4 75h-31C23 23 67-41 67-140c0-50-15-89-37-121h31c24 32 36 73 37 124" id="au"/><g id="g"><use transform="matrix(0.05,0,0,0.05,0,0)" xlink:href="#ar"/><use transform="matrix(0.05,0,0,0.05,5.95,0)" xlink:href="#as"/><use transform="matrix(0.05,0,0,0.05,15.949999999999998,0)" xlink:href="#at"/><use transform="matrix(0.05,0,0,0.05,25.950000000000003,0)" xlink:href="#at"/><use transform="matrix(0.05,0,0,0.05,35.95,0)" xlink:href="#au"/></g><path fill="#333" d="M11 0l48-248h184l-5 28H87l-15 79h140l-5 27H67L50-27h158l-5 27H11" id="av"/><path fill="#333" d="M6 0l50-261h32L37 0H6" id="aw"/><g id="h"><use transform="matrix(0.05,0,0,0.05,0,0)" xlink:href="#av"/><use transform="matrix(0.05,0,0,0.05,12,0)" xlink:href="#al"/><use transform="matrix(0.05,0,0,0.05,26.950000000000003,0)" xlink:href="#aa"/><use transform="matrix(0.05,0,0,0.05,36.95,0)" xlink:href="#ac"/><use transform="matrix(0.05,0,0,0.05,40.900000000000006,0)" xlink:href="#aw"/></g><g id="i"><use transform="matrix(0.05,0,0,0.05,0,0)" xlink:href="#ao"/><use transform="matrix(0.05,0,0,0.05,11.35,0)" xlink:href="#aa"/><use transform="matrix(0.05,0,0,0.05,21.35,0)" xlink:href="#ab"/><use transform="matrix(0.05,0,0,0.05,27.3,0)" xlink:href="#ap"/><use transform="matrix(0.05,0,0,0.05,36.3,0)" xlink:href="#aq"/><use transform="matrix(0.05,0,0,0.05,46.3,0)" xlink:href="#aa"/><use transform="matrix(0.05,0,0,0.05,56.29999999999999,0)" xlink:href="#ab"/></g><g id="j"><use transform="matrix(0.05,0,0,0.05,0,0)" xlink:href="#ar"/><use transform="matrix(0.05,0,0,0.05,5.95,0)" xlink:href="#as"/><use transform="matrix(0.05,0,0,0.05,15.949999999999998,0)" xlink:href="#at"/><use transform="matrix(0.05,0,0,0.05,25.950000000000003,0)" xlink:href="#at"/><use transform="matrix(0.05,0,0,0.05,35.95,0)" xlink:href="#au"/></g><path fill="#333" d="M188 0h-37l-8-164L71 0H34L18-190h31l8 164 75-164h34l8 164 74-164h31" id="ax"/><path fill="#333" d="M133-28C103 26-5 8 13-77c13-62 24-115 90-117 29-1 46 15 56 35l19-102h32L160 0h-30zM45-64c-2 27 10 43 35 43 54-1 69-50 69-103 0-29-15-46-42-46-53-1-58 58-62 106" id="ay"/><g id="k"><use transform="matrix(0.05,0,0,0.05,0,0)" xlink:href="#ai"/><use transform="matrix(0.05,0,0,0.05,12,0)" xlink:href="#aa"/><use transform="matrix(0.05,0,0,0.05,22,0)" xlink:href="#Y"/><use transform="matrix(0.05,0,0,0.05,31,0)" xlink:href="#Y"/><use transform="matrix(0.05,0,0,0.05,40,0)" xlink:href="#ax"/><use transform="matrix(0.05,0,0,0.05,52.95,0)" xlink:href="#ad"/><use transform="matrix(0.05,0,0,0.05,62.95,0)" xlink:href="#ab"/><use transform="matrix(0.05,0,0,0.05,68.9,0)" xlink:href="#ay"/></g><path fill="#333" d="M87-220l-18 92h140l-5 28H64L45 0H11l48-248h178l-5 28H87" id="az"/><path fill="#333" d="M-28 44V31h207v13H-28" id="aA"/><g id="l"><use transform="matrix(0.05,0,0,0.05,0,0)" xlink:href="#az"/><use transform="matrix(0.05,0,0,0.05,10.950000000000001,0)" xlink:href="#an"/><use transform="matrix(0.05,0,0,0.05,20.950000000000003,0)" xlink:href="#ap"/><use transform="matrix(0.05,0,0,0.05,29.950000000000003,0)" xlink:href="#aq"/><use transform="matrix(0.05,0,0,0.05,39.95,0)" xlink:href="#aa"/><use transform="matrix(0.05,0,0,0.05,49.95,0)" xlink:href="#aA"/><use transform="matrix(0.05,0,0,0.05,59.95,0)" xlink:href="#ap"/><use transform="matrix(0.05,0,0,0.05,68.95,0)" xlink:href="#ab"/><use transform="matrix(0.05,0,0,0.05,74.9,0)" xlink:href="#an"/><use transform="matrix(0.05,0,0,0.05,84.9,0)" xlink:href="#aa"/><use transform="matrix(0.05,0,0,0.05,94.9,0)" xlink:href="#ap"/><use transform="matrix(0.05,0,0,0.05,103.9,0)" xlink:href="#ac"/><use transform="matrix(0.05,0,0,0.05,107.85000000000001,0)" xlink:href="#ad"/><use transform="matrix(0.05,0,0,0.05,117.85000000000001,0)" xlink:href="#ag"/></g><path fill="#333" d="M151-220L108 0H75l42-220H32l6-28h203l-5 28h-85" id="aB"/><path fill="#333" d="M67-162c32-53 139-36 121 50C175-51 163 2 97 4 68 4 52-11 42-31 38 6 28 39 22 75H-9l50-265h29c-1 10 0 20-3 28zm89 36c0-26-10-43-35-43-54 0-67 50-69 103-1 29 14 45 42 46 53 0 62-58 62-106" id="aC"/><g id="m"><use transform="matrix(0.05,0,0,0.05,0,0)" xlink:href="#aB"/><use transform="matrix(0.05,0,0,0.05,10.8,0)" xlink:href="#ac"/><use transform="matrix(0.05,0,0,0.05,14.75,0)" xlink:href="#al"/><use transform="matrix(0.05,0,0,0.05,29.700000000000003,0)" xlink:href="#an"/><use transform="matrix(0.05,0,0,0.05,39.7,0)" xlink:href="#Y"/><use transform="matrix(0.05,0,0,0.05,48.7,0)" xlink:href="#ah"/><use transform="matrix(0.05,0,0,0.05,53.7,0)" xlink:href="#aa"/><use transform="matrix(0.05,0,0,0.05,63.7,0)" xlink:href="#al"/><use transform="matrix(0.05,0,0,0.05,78.65,0)" xlink:href="#aC"/></g><path fill="#333" d="M76-167L44 0H12l33-167H18l4-23h27c3-47 25-81 82-69l-4 24c-35-8-44 15-46 45h37l-5 23H76" id="aD"/><g id="n"><use transform="matrix(0.05,0,0,0.05,0,0)" xlink:href="#ae"/><use transform="matrix(0.05,0,0,0.05,5,0)" xlink:href="#ay"/><use transform="matrix(0.05,0,0,0.05,15,0)" xlink:href="#an"/><use transform="matrix(0.05,0,0,0.05,25,0)" xlink:href="#ag"/><use transform="matrix(0.05,0,0,0.05,35,0)" xlink:href="#ah"/><use transform="matrix(0.05,0,0,0.05,40,0)" xlink:href="#ac"/><use transform="matrix(0.05,0,0,0.05,43.95,0)" xlink:href="#aD"/><use transform="matrix(0.05,0,0,0.05,48.95,0)" xlink:href="#ac"/><use transform="matrix(0.05,0,0,0.05,52.900000000000006,0)" xlink:href="#ap"/><use transform="matrix(0.05,0,0,0.05,61.900000000000006,0)" xlink:href="#aa"/><use transform="matrix(0.05,0,0,0.05,71.9,0)" xlink:href="#ay"/><use transform="matrix(0.05,0,0,0.05,81.9,0)" xlink:href="#ad"/><use transform="matrix(0.05,0,0,0.05,91.9,0)" xlink:href="#ab"/></g><g id="o"><use transform="matrix(0.05,0,0,0.05,0,0)" xlink:href="#ai"/><use transform="matrix(0.05,0,0,0.05,12,0)" xlink:href="#ad"/><use transform="matrix(0.05,0,0,0.05,22,0)" xlink:href="#Y"/><use transform="matrix(0.05,0,0,0.05,31,0)" xlink:href="#ah"/><use transform="matrix(0.05,0,0,0.05,36,0)" xlink:href="#an"/><use transform="matrix(0.05,0,0,0.05,46,0)" xlink:href="#ad"/><use transform="matrix(0.05,0,0,0.05,56,0)" xlink:href="#Y"/></g><g id="p"><use transform="matrix(0.05,0,0,0.05,0,0)" xlink:href="#aB"/><use transform="matrix(0.05,0,0,0.05,10.8,0)" xlink:href="#ac"/><use transform="matrix(0.05,0,0,0.05,14.75,0)" xlink:href="#ah"/><use transform="matrix(0.05,0,0,0.05,19.75,0)" xlink:href="#Z"/><use transform="matrix(0.05,0,0,0.05,29.75,0)" xlink:href="#aw"/><use transform="matrix(0.05,0,0,0.05,33.7,0)" xlink:href="#ad"/></g><path fill="#333" d="M123-251c66 0 92 69 53 113C138-94 73-75 39-27h128l-5 27H-2c17-92 123-93 159-163 14-28-1-64-36-62-29 2-46 17-54 41l-30-6c13-36 37-61 86-61" id="aE"/><path fill="#333" d="M151-85c6-55-69-56-94-29H26l34-134h141l-5 27H84l-20 79c41-34 127-11 121 53C199 13 30 38 8-54l29-8C52 0 159-13 151-85" id="aF"/><g id="q"><use transform="matrix(0.05,0,0,0.05,0,0)" xlink:href="#ar"/><use transform="matrix(0.05,0,0,0.05,5.95,0)" xlink:href="#aE"/><use transform="matrix(0.05,0,0,0.05,15.949999999999998,0)" xlink:href="#aF"/><use transform="matrix(0.05,0,0,0.05,25.950000000000003,0)" xlink:href="#aF"/><use transform="matrix(0.05,0,0,0.05,35.95,0)" xlink:href="#au"/></g><path fill="#333" d="M125-24c46 0 70-25 89-51l25 16C214-24 183 4 123 4 8 4-5-146 60-208c32-50 158-61 191-5 5 7 9 14 11 22l-32 10c-9-28-33-43-69-43-74 0-108 51-108 125 0 46 24 75 72 75" id="aG"/><g id="r"><use transform="matrix(0.05,0,0,0.05,0,0)" xlink:href="#aG"/><use transform="matrix(0.05,0,0,0.05,12.950000000000001,0)" xlink:href="#ad"/><use transform="matrix(0.05,0,0,0.05,22.950000000000003,0)" xlink:href="#ag"/><use transform="matrix(0.05,0,0,0.05,32.95,0)" xlink:href="#ah"/><use transform="matrix(0.05,0,0,0.05,37.95,0)" xlink:href="#an"/><use transform="matrix(0.05,0,0,0.05,47.95,0)" xlink:href="#ag"/><use transform="matrix(0.05,0,0,0.05,57.95,0)" xlink:href="#ac"/><use transform="matrix(0.05,0,0,0.05,61.900000000000006,0)" xlink:href="#ay"/><use transform="matrix(0.05,0,0,0.05,71.9,0)" xlink:href="#ad"/></g><path fill="#333" d="M148-71c0-36-31-44-71-41l5-28c46 3 81-6 81-50 0-23-15-35-39-35-30 0-49 17-56 41l-32-3c12-39 42-63 90-64 43 0 69 19 71 60 1 43-30 58-65 66 27 5 49 22 49 53 0 85-133 99-164 35-4-7-7-15-9-22l29-9c8 25 25 45 58 45 34 1 53-17 53-48" id="aH"/><g id="s"><use transform="matrix(0.05,0,0,0.05,0,0)" xlink:href="#ar"/><use transform="matrix(0.05,0,0,0.05,5.95,0)" xlink:href="#aH"/><use transform="matrix(0.05,0,0,0.05,15.949999999999998,0)" xlink:href="#at"/><use transform="matrix(0.05,0,0,0.05,25.950000000000003,0)" xlink:href="#at"/><use transform="matrix(0.05,0,0,0.05,35.95,0)" xlink:href="#au"/></g><g id="t"><use transform="matrix(0.05,0,0,0.05,0,0)" xlink:href="#aG"/><use transform="matrix(0.05,0,0,0.05,12.950000000000001,0)" xlink:href="#ab"/><use transform="matrix(0.05,0,0,0.05,18.900000000000002,0)" xlink:href="#an"/><use transform="matrix(0.05,0,0,0.05,28.900000000000002,0)" xlink:href="#aa"/><use transform="matrix(0.05,0,0,0.05,38.900000000000006,0)" xlink:href="#ah"/><use transform="matrix(0.05,0,0,0.05,43.900000000000006,0)" xlink:href="#an"/><use transform="matrix(0.05,0,0,0.05,53.900000000000006,0)" xlink:href="#ay"/><use transform="matrix(0.05,0,0,0.05,63.900000000000006,0)" xlink:href="#aA"/><use transform="matrix(0.05,0,0,0.05,73.9,0)" xlink:href="#aa"/><use transform="matrix(0.05,0,0,0.05,83.9,0)" xlink:href="#ah"/></g><g id="u"><use transform="matrix(0.05,0,0,0.05,0,0)" xlink:href="#X"/><use transform="matrix(0.05,0,0,0.05,12.950000000000001,0)" xlink:href="#aC"/><use transform="matrix(0.05,0,0,0.05,22.950000000000003,0)" xlink:href="#ay"/><use transform="matrix(0.05,0,0,0.05,32.95,0)" xlink:href="#aa"/><use transform="matrix(0.05,0,0,0.05,42.95,0)" xlink:href="#ah"/><use transform="matrix(0.05,0,0,0.05,47.95,0)" xlink:href="#an"/><use transform="matrix(0.05,0,0,0.05,57.95,0)" xlink:href="#ay"/><use transform="matrix(0.05,0,0,0.05,67.95,0)" xlink:href="#aA"/><use transform="matrix(0.05,0,0,0.05,77.95,0)" xlink:href="#aa"/><use transform="matrix(0.05,0,0,0.05,87.95,0)" xlink:href="#ah"/></g><g id="v"><use transform="matrix(0.05,0,0,0.05,0,0)" xlink:href="#aG"/><use transform="matrix(0.05,0,0,0.05,12.950000000000001,0)" xlink:href="#ab"/><use transform="matrix(0.05,0,0,0.05,18.900000000000002,0)" xlink:href="#an"/><use transform="matrix(0.05,0,0,0.05,28.900000000000002,0)" xlink:href="#aa"/><use transform="matrix(0.05,0,0,0.05,38.900000000000006,0)" xlink:href="#ay"/><use transform="matrix(0.05,0,0,0.05,48.900000000000006,0)" xlink:href="#ad"/><use transform="matrix(0.05,0,0,0.05,58.900000000000006,0)" xlink:href="#ab"/><use transform="matrix(0.05,0,0,0.05,64.85000000000001,0)" xlink:href="#aA"/><use transform="matrix(0.05,0,0,0.05,74.85000000000001,0)" xlink:href="#ac"/><use transform="matrix(0.05,0,0,0.05,78.80000000000001,0)" xlink:href="#ay"/></g><g id="w"><use transform="matrix(0.05,0,0,0.05,0,0)" xlink:href="#az"/><use transform="matrix(0.05,0,0,0.05,10.950000000000001,0)" xlink:href="#aj"/></g><path fill="#333" d="M11 0l48-248h34L50-27h125l-5 27H11" id="aI"/><path fill="#333" d="M127 0L80-88 50-66 37 0H6l51-261h31L57-100l99-90h39l-93 82L161 0h-34" id="aJ"/><g id="x"><use transform="matrix(0.05,0,0,0.05,0,0)" xlink:href="#aI"/><use transform="matrix(0.05,0,0,0.05,10,0)" xlink:href="#ac"/><use transform="matrix(0.05,0,0,0.05,13.949999999999998,0)" xlink:href="#aJ"/><use transform="matrix(0.05,0,0,0.05,22.95,0)" xlink:href="#an"/><use transform="matrix(0.05,0,0,0.05,32.95,0)" xlink:href="#Y"/></g><g id="y"><use transform="matrix(0.05,0,0,0.05,0,0)" xlink:href="#ae"/><use transform="matrix(0.05,0,0,0.05,5,0)" xlink:href="#ag"/><use transform="matrix(0.05,0,0,0.05,15,0)" xlink:href="#ah"/></g><path fill="#333" d="M194-120c59 52 2 134-86 124-53-6-90-18-98-63l31-7c8 30 29 43 70 43 46 0 84-17 71-62-32-43-135-20-137-98-3-89 178-90 191-16l-30 9c-8-48-127-53-127 5 0 53 81 35 115 65" id="aK"/><path fill="#333" d="M103-194c29 0 47 14 56 36 2-11 5-23 8-32h30L160-5C157 61 82 97 21 62 9 55 4 45 1 30l28-7c7 42 83 31 92-3 4-16 9-38 13-55-13 20-29 36-62 36-40 0-60-25-60-64 0-71 23-131 91-131zm4 24c-53 0-58 54-61 104-2 27 10 44 36 44 49 0 65-50 67-102 1-29-15-46-42-46" id="aL"/><g id="z"><use transform="matrix(0.05,0,0,0.05,0,0)" xlink:href="#aK"/><use transform="matrix(0.05,0,0,0.05,12,0)" xlink:href="#an"/><use transform="matrix(0.05,0,0,0.05,22,0)" xlink:href="#aL"/><use transform="matrix(0.05,0,0,0.05,32,0)" xlink:href="#Z"/><use transform="matrix(0.05,0,0,0.05,42,0)" xlink:href="#ac"/><use transform="matrix(0.05,0,0,0.05,45.95,0)" xlink:href="#al"/><use transform="matrix(0.05,0,0,0.05,60.900000000000006,0)" xlink:href="#ac"/><use transform="matrix(0.05,0,0,0.05,64.85000000000001,0)" xlink:href="#an"/><use transform="matrix(0.05,0,0,0.05,74.85000000000001,0)" xlink:href="#ag"/><use transform="matrix(0.05,0,0,0.05,84.85000000000001,0)" xlink:href="#ah"/><use transform="matrix(0.05,0,0,0.05,89.85000000000001,0)" xlink:href="#ad"/><use transform="matrix(0.05,0,0,0.05,99.85000000000001,0)" xlink:href="#Y"/></g><g id="A"><use transform="matrix(0.05,0,0,0.05,0,0)" xlink:href="#ae"/><use transform="matrix(0.05,0,0,0.05,5,0)" xlink:href="#af"/><use transform="matrix(0.05,0,0,0.05,17.950000000000003,0)" xlink:href="#aA"/><use transform="matrix(0.05,0,0,0.05,27.950000000000003,0)" xlink:href="#al"/><use transform="matrix(0.05,0,0,0.05,42.900000000000006,0)" xlink:href="#ac"/><use transform="matrix(0.05,0,0,0.05,46.85000000000001,0)" xlink:href="#ad"/></g><g id="B"><use transform="matrix(0.05,0,0,0.05,0,0)" xlink:href="#ae"/><use transform="matrix(0.05,0,0,0.05,5,0)" xlink:href="#af"/><use transform="matrix(0.05,0,0,0.05,17.950000000000003,0)" xlink:href="#aA"/><use transform="matrix(0.05,0,0,0.05,27.950000000000003,0)" xlink:href="#aa"/><use transform="matrix(0.05,0,0,0.05,37.95,0)" xlink:href="#aA"/><use transform="matrix(0.05,0,0,0.05,47.95,0)" xlink:href="#Y"/><use transform="matrix(0.05,0,0,0.05,56.95,0)" xlink:href="#an"/><use transform="matrix(0.05,0,0,0.05,66.95,0)" xlink:href="#aL"/><use transform="matrix(0.05,0,0,0.05,76.95,0)" xlink:href="#Z"/><use transform="matrix(0.05,0,0,0.05,86.95,0)" xlink:href="#ac"/><use transform="matrix(0.05,0,0,0.05,90.9,0)" xlink:href="#ab"/></g><g id="C"><use transform="matrix(0.05,0,0,0.05,0,0)" xlink:href="#aK"/><use transform="matrix(0.05,0,0,0.05,12,0)" xlink:href="#an"/><use transform="matrix(0.05,0,0,0.05,22,0)" xlink:href="#aL"/><use transform="matrix(0.05,0,0,0.05,32,0)" xlink:href="#Z"/><use transform="matrix(0.05,0,0,0.05,42,0)" xlink:href="#ac"/><use transform="matrix(0.05,0,0,0.05,45.95,0)" xlink:href="#ay"/><use transform="matrix(0.05,0,0,0.05,55.95,0)" xlink:href="#ad"/><use transform="matrix(0.05,0,0,0.05,65.95,0)" xlink:href="#ab"/><use transform="matrix(0.05,0,0,0.05,71.9,0)" xlink:href="#an"/><use transform="matrix(0.05,0,0,0.05,81.9,0)" xlink:href="#Y"/></g><g id="D"><use transform="matrix(0.05,0,0,0.05,0,0)" xlink:href="#aK"/><use transform="matrix(0.05,0,0,0.05,12,0)" xlink:href="#an"/><use transform="matrix(0.05,0,0,0.05,22,0)" xlink:href="#aL"/><use transform="matrix(0.05,0,0,0.05,32,0)" xlink:href="#Z"/><use transform="matrix(0.05,0,0,0.05,42,0)" xlink:href="#ac"/><use transform="matrix(0.05,0,0,0.05,45.95,0)" xlink:href="#ay"/><use transform="matrix(0.05,0,0,0.05,55.95,0)" xlink:href="#ad"/><use transform="matrix(0.05,0,0,0.05,65.95,0)" xlink:href="#ab"/><use transform="matrix(0.05,0,0,0.05,71.9,0)" xlink:href="#aA"/><use transform="matrix(0.05,0,0,0.05,81.9,0)" xlink:href="#ac"/><use transform="matrix(0.05,0,0,0.05,85.85000000000001,0)" xlink:href="#ay"/></g><g id="E"><use transform="matrix(0.05,0,0,0.05,0,0)" xlink:href="#aK"/><use transform="matrix(0.05,0,0,0.05,12,0)" xlink:href="#an"/><use transform="matrix(0.05,0,0,0.05,22,0)" xlink:href="#aL"/><use transform="matrix(0.05,0,0,0.05,32,0)" xlink:href="#Z"/><use transform="matrix(0.05,0,0,0.05,42,0)" xlink:href="#ac"/><use transform="matrix(0.05,0,0,0.05,45.95,0)" xlink:href="#ay"/><use transform="matrix(0.05,0,0,0.05,55.95,0)" xlink:href="#ad"/><use transform="matrix(0.05,0,0,0.05,65.95,0)" xlink:href="#aA"/><use transform="matrix(0.05,0,0,0.05,75.95,0)" xlink:href="#ac"/><use transform="matrix(0.05,0,0,0.05,79.9,0)" xlink:href="#ay"/></g><path fill="#333" d="M249-183c0 48-29 72-75 77L221 0h-36l-43-103H65L45 0H11l48-248c83 2 190-17 190 65zm-34 3c0-55-74-39-127-41l-18 92c63-1 145 13 145-51" id="aM"/><g id="F"><use transform="matrix(0.05,0,0,0.05,0,0)" xlink:href="#aM"/><use transform="matrix(0.05,0,0,0.05,12.950000000000001,0)" xlink:href="#an"/><use transform="matrix(0.05,0,0,0.05,22.950000000000003,0)" xlink:href="#aC"/><use transform="matrix(0.05,0,0,0.05,32.95,0)" xlink:href="#ad"/><use transform="matrix(0.05,0,0,0.05,42.95,0)" xlink:href="#Y"/><use transform="matrix(0.05,0,0,0.05,51.95,0)" xlink:href="#ah"/><use transform="matrix(0.05,0,0,0.05,56.95,0)" xlink:href="#an"/><use transform="matrix(0.05,0,0,0.05,66.95,0)" xlink:href="#ad"/><use transform="matrix(0.05,0,0,0.05,76.95,0)" xlink:href="#Y"/></g><g id="G"><use transform="matrix(0.05,0,0,0.05,0,0)" xlink:href="#ai"/><use transform="matrix(0.05,0,0,0.05,12,0)" xlink:href="#ad"/><use transform="matrix(0.05,0,0,0.05,22,0)" xlink:href="#Y"/><use transform="matrix(0.05,0,0,0.05,31,0)" xlink:href="#ah"/><use transform="matrix(0.05,0,0,0.05,36,0)" xlink:href="#an"/><use transform="matrix(0.05,0,0,0.05,46,0)" xlink:href="#ad"/><use transform="matrix(0.05,0,0,0.05,56,0)" xlink:href="#aA"/><use transform="matrix(0.05,0,0,0.05,66,0)" xlink:href="#ac"/><use transform="matrix(0.05,0,0,0.05,69.95,0)" xlink:href="#ay"/></g><g id="H"><use transform="matrix(0.05,0,0,0.05,0,0)" xlink:href="#aM"/><use transform="matrix(0.05,0,0,0.05,12.950000000000001,0)" xlink:href="#an"/><use transform="matrix(0.05,0,0,0.05,22.950000000000003,0)" xlink:href="#aC"/><use transform="matrix(0.05,0,0,0.05,32.95,0)" xlink:href="#ad"/><use transform="matrix(0.05,0,0,0.05,42.95,0)" xlink:href="#Y"/><use transform="matrix(0.05,0,0,0.05,51.95,0)" xlink:href="#ah"/><use transform="matrix(0.05,0,0,0.05,56.95,0)" xlink:href="#an"/><use transform="matrix(0.05,0,0,0.05,66.95,0)" xlink:href="#aa"/><use transform="matrix(0.05,0,0,0.05,76.95,0)" xlink:href="#ay"/><use transform="matrix(0.05,0,0,0.05,86.95,0)" xlink:href="#ad"/><use transform="matrix(0.05,0,0,0.05,96.95,0)" xlink:href="#ab"/><use transform="matrix(0.05,0,0,0.05,102.9,0)" xlink:href="#aA"/><use transform="matrix(0.05,0,0,0.05,112.9,0)" xlink:href="#ac"/><use transform="matrix(0.05,0,0,0.05,116.85000000000001,0)" xlink:href="#ay"/></g><g id="I"><use transform="matrix(0.05,0,0,0.05,0,0)" xlink:href="#af"/><use transform="matrix(0.05,0,0,0.05,12.950000000000001,0)" xlink:href="#aa"/><use transform="matrix(0.05,0,0,0.05,22.950000000000003,0)" xlink:href="#ah"/><use transform="matrix(0.05,0,0,0.05,27.950000000000003,0)" xlink:href="#ad"/><use transform="matrix(0.05,0,0,0.05,37.95,0)" xlink:href="#Y"/></g><g id="J"><use transform="matrix(0.05,0,0,0.05,0,0)" xlink:href="#ai"/><use transform="matrix(0.05,0,0,0.05,12,0)" xlink:href="#an"/><use transform="matrix(0.05,0,0,0.05,22,0)" xlink:href="#ab"/><use transform="matrix(0.05,0,0,0.05,27.950000000000003,0)" xlink:href="#Y"/><use transform="matrix(0.05,0,0,0.05,36.95,0)" xlink:href="#ad"/><use transform="matrix(0.05,0,0,0.05,46.95,0)" xlink:href="#ag"/><use transform="matrix(0.05,0,0,0.05,56.95,0)" xlink:href="#aa"/><use transform="matrix(0.05,0,0,0.05,66.95,0)" xlink:href="#aw"/><use transform="matrix(0.05,0,0,0.05,70.9,0)" xlink:href="#an"/><use transform="matrix(0.05,0,0,0.05,80.9,0)" xlink:href="#Y"/></g><path fill="#333" d="M219-77C219 17 104-2 11 0l48-248c73 2 169-15 169 57 0 38-24 54-60 60 29 5 51 21 51 54zm-26-111c0-44-62-31-105-33l-16 79c55 0 121 9 121-46zm-7 110c-1-49-69-36-119-38L50-27c61-1 137 12 136-51" id="aN"/><g id="K"><use transform="matrix(0.05,0,0,0.05,0,0)" xlink:href="#aN"/><use transform="matrix(0.05,0,0,0.05,12,0)" xlink:href="#ac"/><use transform="matrix(0.05,0,0,0.05,15.949999999999998,0)" xlink:href="#ad"/><use transform="matrix(0.05,0,0,0.05,25.950000000000003,0)" xlink:href="#aL"/><use transform="matrix(0.05,0,0,0.05,35.95,0)" xlink:href="#ab"/><use transform="matrix(0.05,0,0,0.05,41.900000000000006,0)" xlink:href="#aa"/><use transform="matrix(0.05,0,0,0.05,51.900000000000006,0)" xlink:href="#aD"/><use transform="matrix(0.05,0,0,0.05,56.900000000000006,0)" xlink:href="#ac"/><use transform="matrix(0.05,0,0,0.05,60.85,0)" xlink:href="#aa"/></g><g id="L"><use transform="matrix(0.05,0,0,0.05,0,0)" xlink:href="#ar"/><use transform="matrix(0.05,0,0,0.05,5.95,0)" xlink:href="#aE"/><use transform="matrix(0.05,0,0,0.05,15.949999999999998,0)" xlink:href="#aF"/><use transform="matrix(0.05,0,0,0.05,25.950000000000003,0)" xlink:href="#aF"/><use transform="matrix(0.05,0,0,0.05,35.95,0)" xlink:href="#au"/></g><path fill="#333" d="M-8 0l5-24 140-142H31l5-24h145l-5 24L36-24h119l-5 24H-8" id="aO"/><g id="M"><use transform="matrix(0.05,0,0,0.05,0,0)" xlink:href="#aI"/><use transform="matrix(0.05,0,0,0.05,10,0)" xlink:href="#ad"/><use transform="matrix(0.05,0,0,0.05,20,0)" xlink:href="#ap"/><use transform="matrix(0.05,0,0,0.05,29,0)" xlink:href="#aa"/><use transform="matrix(0.05,0,0,0.05,39,0)" xlink:href="#aw"/><use transform="matrix(0.05,0,0,0.05,42.95,0)" xlink:href="#ac"/><use transform="matrix(0.05,0,0,0.05,46.900000000000006,0)" xlink:href="#aO"/><use transform="matrix(0.05,0,0,0.05,55.900000000000006,0)" xlink:href="#aa"/><use transform="matrix(0.05,0,0,0.05,65.9,0)" xlink:href="#ap"/><use transform="matrix(0.05,0,0,0.05,74.9,0)" xlink:href="#ac"/><use transform="matrix(0.05,0,0,0.05,78.85000000000001,0)" xlink:href="#ad"/><use transform="matrix(0.05,0,0,0.05,88.85000000000001,0)" xlink:href="#ag"/></g><g id="N"><use transform="matrix(0.05,0,0,0.05,0,0)" xlink:href="#aK"/><use transform="matrix(0.05,0,0,0.05,12,0)" xlink:href="#ac"/><use transform="matrix(0.05,0,0,0.05,15.949999999999998,0)" xlink:href="#ah"/><use transform="matrix(0.05,0,0,0.05,20.95,0)" xlink:href="#ac"/><use transform="matrix(0.05,0,0,0.05,24.9,0)" xlink:href="#ad"/><use transform="matrix(0.05,0,0,0.05,34.9,0)" xlink:href="#aA"/><use transform="matrix(0.05,0,0,0.05,44.9,0)" xlink:href="#ax"/><use transform="matrix(0.05,0,0,0.05,57.85,0)" xlink:href="#an"/><use transform="matrix(0.05,0,0,0.05,67.85,0)" xlink:href="#am"/></g><path fill="#333" d="M67-158c22-48 132-52 116 29L158 0h-32l25-140c3-38-53-32-70-12C52-117 51-52 38 0H6l36-190h30zm126-100c-8 21-15 46-44 47-22 0-30-19-50-21-14 0-21 10-25 21H58c8-21 14-47 44-47 22 0 32 18 50 21 13-1 21-10 25-21h16" id="aP"/><g id="O"><use transform="matrix(0.05,0,0,0.05,0,0)" xlink:href="#aG"/><use transform="matrix(0.05,0,0,0.05,12.950000000000001,0)" xlink:href="#Z"/><use transform="matrix(0.05,0,0,0.05,22.950000000000003,0)" xlink:href="#al"/><use transform="matrix(0.05,0,0,0.05,37.900000000000006,0)" xlink:href="#aC"/><use transform="matrix(0.05,0,0,0.05,47.900000000000006,0)" xlink:href="#aw"/><use transform="matrix(0.05,0,0,0.05,51.85,0)" xlink:href="#an"/><use transform="matrix(0.05,0,0,0.05,61.85,0)" xlink:href="#aa"/><use transform="matrix(0.05,0,0,0.05,71.85000000000001,0)" xlink:href="#aP"/><use transform="matrix(0.05,0,0,0.05,81.85000000000001,0)" xlink:href="#ad"/><use transform="matrix(0.05,0,0,0.05,91.85000000000001,0)" xlink:href="#Y"/></g><g id="P"><use transform="matrix(0.05,0,0,0.05,0,0)" xlink:href="#af"/><use transform="matrix(0.05,0,0,0.05,12.950000000000001,0)" xlink:href="#aa"/><use transform="matrix(0.05,0,0,0.05,22.950000000000003,0)" xlink:href="#ah"/><use transform="matrix(0.05,0,0,0.05,27.950000000000003,0)" xlink:href="#an"/></g><g id="Q"><use transform="matrix(0.05,0,0,0.05,0,0)" xlink:href="#X"/><use transform="matrix(0.05,0,0,0.05,12.950000000000001,0)" xlink:href="#Y"/><use transform="matrix(0.05,0,0,0.05,21.950000000000003,0)" xlink:href="#Z"/><use transform="matrix(0.05,0,0,0.05,31.950000000000003,0)" xlink:href="#aa"/><use transform="matrix(0.05,0,0,0.05,41.95,0)" xlink:href="#ab"/><use transform="matrix(0.05,0,0,0.05,47.900000000000006,0)" xlink:href="#ac"/><use transform="matrix(0.05,0,0,0.05,51.85,0)" xlink:href="#ad"/><use transform="matrix(0.05,0,0,0.05,61.85,0)" xlink:href="#aA"/><use transform="matrix(0.05,0,0,0.05,71.85000000000001,0)" xlink:href="#ac"/><use transform="matrix(0.05,0,0,0.05,75.80000000000001,0)" xlink:href="#ay"/></g><g id="R"><use transform="matrix(0.05,0,0,0.05,0,0)" xlink:href="#aG"/><use transform="matrix(0.05,0,0,0.05,12.950000000000001,0)" xlink:href="#ad"/><use transform="matrix(0.05,0,0,0.05,22.950000000000003,0)" xlink:href="#al"/><use transform="matrix(0.05,0,0,0.05,37.900000000000006,0)" xlink:href="#an"/><use transform="matrix(0.05,0,0,0.05,47.900000000000006,0)" xlink:href="#ag"/><use transform="matrix(0.05,0,0,0.05,57.900000000000006,0)" xlink:href="#ah"/><use transform="matrix(0.05,0,0,0.05,62.900000000000006,0)" xlink:href="#aa"/><use transform="matrix(0.05,0,0,0.05,72.9,0)" xlink:href="#ab"/><use transform="matrix(0.05,0,0,0.05,78.85000000000001,0)" xlink:href="#ac"/><use transform="matrix(0.05,0,0,0.05,82.80000000000001,0)" xlink:href="#ad"/><use transform="matrix(0.05,0,0,0.05,92.80000000000001,0)" xlink:href="#Y"/></g><g id="S"><use transform="matrix(0.05,0,0,0.05,0,0)" xlink:href="#av"/><use transform="matrix(0.05,0,0,0.05,12,0)" xlink:href="#al"/><use transform="matrix(0.05,0,0,0.05,26.950000000000003,0)" xlink:href="#ac"/><use transform="matrix(0.05,0,0,0.05,30.900000000000002,0)" xlink:href="#Y"/><use transform="matrix(0.05,0,0,0.05,39.900000000000006,0)" xlink:href="#ad"/><use transform="matrix(0.05,0,0,0.05,49.900000000000006,0)" xlink:href="#ab"/><use transform="matrix(0.05,0,0,0.05,55.85,0)" xlink:href="#aA"/><use transform="matrix(0.05,0,0,0.05,65.85000000000001,0)" xlink:href="#ac"/><use transform="matrix(0.05,0,0,0.05,69.80000000000001,0)" xlink:href="#ay"/></g><g id="T"><use transform="matrix(0.05,0,0,0.05,0,0)" xlink:href="#ac"/><use transform="matrix(0.05,0,0,0.05,3.95,0)" xlink:href="#ag"/><use transform="matrix(0.05,0,0,0.05,13.949999999999998,0)" xlink:href="#ah"/></g><g id="U"><use transform="matrix(0.05,0,0,0.05,0,0)" xlink:href="#ae"/><use transform="matrix(0.05,0,0,0.05,5,0)" xlink:href="#af"/><use transform="matrix(0.05,0,0,0.05,17.950000000000003,0)" xlink:href="#aA"/><use transform="matrix(0.05,0,0,0.05,27.950000000000003,0)" xlink:href="#ay"/><use transform="matrix(0.05,0,0,0.05,37.95,0)" xlink:href="#an"/><use transform="matrix(0.05,0,0,0.05,47.95,0)" xlink:href="#aw"/><use transform="matrix(0.05,0,0,0.05,51.900000000000006,0)" xlink:href="#aA"/><use transform="matrix(0.05,0,0,0.05,61.900000000000006,0)" xlink:href="#aC"/><use transform="matrix(0.05,0,0,0.05,71.9,0)" xlink:href="#ad"/><use transform="matrix(0.05,0,0,0.05,81.9,0)" xlink:href="#Y"/><use transform="matrix(0.05,0,0,0.05,90.9,0)" xlink:href="#ah"/><use transform="matrix(0.05,0,0,0.05,95.9,0)" xlink:href="#an"/><use transform="matrix(0.05,0,0,0.05,105.9,0)" xlink:href="#ad"/></g><path fill="#333" d="M206-222l-58 71C115-108 89-62 76 0H43c20-96 77-159 130-221H37l5-27h169" id="aQ"/><g id="V"><use transform="matrix(0.05,0,0,0.05,0,0)" xlink:href="#ar"/><use transform="matrix(0.05,0,0,0.05,5.95,0)" xlink:href="#aQ"/><use transform="matrix(0.05,0,0,0.05,15.949999999999998,0)" xlink:href="#at"/><use transform="matrix(0.05,0,0,0.05,25.950000000000003,0)" xlink:href="#at"/><use transform="matrix(0.05,0,0,0.05,35.95,0)" xlink:href="#au"/></g><g id="W"><use transform="matrix(0.05,0,0,0.05,0,0)" xlink:href="#aG"/><use transform="matrix(0.05,0,0,0.05,12.950000000000001,0)" xlink:href="#ad"/><use transform="matrix(0.05,0,0,0.05,22.950000000000003,0)" xlink:href="#ag"/><use transform="matrix(0.05,0,0,0.05,32.95,0)" xlink:href="#ah"/><use transform="matrix(0.05,0,0,0.05,37.95,0)" xlink:href="#an"/><use transform="matrix(0.05,0,0,0.05,47.95,0)" xlink:href="#ag"/><use transform="matrix(0.05,0,0,0.05,57.95,0)" xlink:href="#ac"/><use transform="matrix(0.05,0,0,0.05,61.900000000000006,0)" xlink:href="#ay"/><use transform="matrix(0.05,0,0,0.05,71.9,0)" xlink:href="#ad"/></g></defs></g></svg>